<svg xmlns="http://www.w3.org/2000/svg" xmlns:xlink="http://www.w3.org/1999/xlink" width="48.566" height="39.84" viewBox="0 0 48.566 39.84">
  <defs>
    <style>
      .cls-1 {
        fill: url(#linear-gradient);
      }

      .cls-2 {
        fill: url(#linear-gradient-2);
      }

      .cls-3 {
        fill: url(#linear-gradient-3);
      }

      .cls-4 {
        fill: #a6a8ab;
      }
    </style>
    <linearGradient id="linear-gradient" y1="0.5" x2="1" y2="0.5" gradientUnits="objectBoundingBox">
      <stop offset="0" stop-color="#05bbd3"/>
      <stop offset="1" stop-color="#5ac1a8"/>
    </linearGradient>
    <linearGradient id="linear-gradient-2" x1="0.101" y1="0.778" x2="0.718" y2="0.073" gradientUnits="objectBoundingBox">
      <stop offset="0.053" stop-color="#5ac1a8"/>
      <stop offset="0.186" stop-color="#49bfb0"/>
      <stop offset="0.538" stop-color="#24bdc3"/>
      <stop offset="0.822" stop-color="#0dbbce"/>
      <stop offset="1" stop-color="#05bbd3"/>
    </linearGradient>
    <linearGradient id="linear-gradient-3" x1="0.912" y1="-0.073" x2="-0.269" y2="1.152" gradientUnits="objectBoundingBox">
      <stop offset="0.11" stop-color="#5ac1a8"/>
      <stop offset="0.833" stop-color="#05bbd3"/>
    </linearGradient>
  </defs>
  <g id="Group_169" data-name="Group 169" transform="translate(-12.285 -10.203)">
    <g id="Group_165" data-name="Group 165" transform="translate(17.589 37.391)">
      <path id="Path_664" data-name="Path 664" class="cls-1" d="M2234.467,957.308a5.294,5.294,0,0,0-.434-1.66,2.027,2.027,0,0,0-.479-.661,1.058,1.058,0,0,0-.7-.261,1.94,1.94,0,0,0-.759.179,4.449,4.449,0,0,0-.718.39,11.654,11.654,0,0,0-1.322,1.026c-.849.74-1.657,1.54-2.466,2.344s-1.622,1.607-2.45,2.4a32.628,32.628,0,0,1-5.385,4.318,12.507,12.507,0,0,1-3.2,1.421,7.253,7.253,0,0,1-3.56.122,7.491,7.491,0,0,1-3.173-1.676c-.892-.779-1.667-1.617-2.479-2.393a11.336,11.336,0,0,0-2.589-1.989,3.651,3.651,0,0,0-2.95-.285,7.152,7.152,0,0,0-2.59,1.9l-1.185,1.24a8.593,8.593,0,0,1-1.332,1.15,3.043,3.043,0,0,1-1.7.549,3.006,3.006,0,0,1-1.661-.586,7.4,7.4,0,0,1-2.124-2.717,10.793,10.793,0,0,0,1.013,1.382,5.429,5.429,0,0,0,1.257,1.1,2.755,2.755,0,0,0,1.511.43,2.629,2.629,0,0,0,1.437-.569,17.866,17.866,0,0,0,2.321-2.437,11.412,11.412,0,0,1,1.25-1.239,5.65,5.65,0,0,1,1.544-.943,4.1,4.1,0,0,1,1.823-.275,4.955,4.955,0,0,1,1.758.5,12.144,12.144,0,0,1,2.846,2.082c.85.784,1.631,1.627,2.463,2.338a6.548,6.548,0,0,0,2.775,1.45,6.31,6.31,0,0,0,3.108-.091,12.116,12.116,0,0,0,2.979-1.292,34.51,34.51,0,0,0,5.338-4.076c1.7-1.505,3.325-3.11,5.125-4.542a12,12,0,0,1,1.43-.977,4.79,4.79,0,0,1,.795-.37,2.138,2.138,0,0,1,.885-.14,1.3,1.3,0,0,1,.829.378,2.207,2.207,0,0,1,.474.76A5.4,5.4,0,0,1,2234.467,957.308Z" transform="translate(-2191.206 -954.441)"/>
    </g>
    <g id="Group_166" data-name="Group 166" transform="translate(12.285 10.203)">
      <path id="Path_665" data-name="Path 665" class="cls-2" d="M2188.654,857.466l1.457-2.224a15.719,15.719,0,0,0-8.886,8.509c.083-.391.181-.8.3-1.213a18,18,0,0,1,1.43-3.534,21.008,21.008,0,0,0-7.109,11.587,9.806,9.806,0,0,1,.528-4.685,16.981,16.981,0,0,0-2.454,9.915l-1.2-2.55a5.778,5.778,0,0,0-.48,1.365,7.251,7.251,0,0,0,1.357,5.491,3.912,3.912,0,0,1-2.011-1.482,2.62,2.62,0,0,0,.357,1.371c.681,1.121,1.976,1.064,3.509,2.5a7.163,7.163,0,0,1,.508.529,45.048,45.048,0,0,1,8.777-19.454c-4.865,7.612-8.734,15.519-7.849,25.179l1.186-1.036a8.3,8.3,0,0,1-.332-1.672,3.829,3.829,0,0,1,.244-2.459,3.069,3.069,0,0,1,2.334-1.186l-.662-.211a15.684,15.684,0,0,0,3.884-1.7c-.341.1-.711.2-1.109.287a13.106,13.106,0,0,1-1.73.249,8.518,8.518,0,0,0,2.867-2.114,10.513,10.513,0,0,0,2.073-4.5,43.336,43.336,0,0,1,2.846-7.268l-3,4.146a34.974,34.974,0,0,1,8.268-12.921l-2.624,1.2q.31-.421.667-.836a16.088,16.088,0,0,1,7.936-4.826,26.146,26.146,0,0,0-11.084,3.541Z" transform="translate(-2171.586 -853.912)"/>
      <path id="Path_666" data-name="Path 666" class="cls-3" d="M2199.74,853.892a22.479,22.479,0,0,0-6.548,1.418,26.321,26.321,0,0,0-4.536,2.123l1.457-2.224a15.719,15.719,0,0,0-8.886,8.51c.082-.391.181-.8.3-1.213a18,18,0,0,1,1.43-3.534,21.012,21.012,0,0,0-7.109,11.587,9.809,9.809,0,0,1,.528-4.685,16.986,16.986,0,0,0-2.455,9.915l-1.2-2.55a5.786,5.786,0,0,0-.479,1.365,7.252,7.252,0,0,0,1.357,5.491,3.912,3.912,0,0,1-2.01-1.482,2.617,2.617,0,0,0,.357,1.371c.681,1.121,1.976,1.064,3.509,2.5a7.19,7.19,0,0,1,.508.529,45.087,45.087,0,0,1,3.333-10.5c.684-1.492,1.356-2.712,1.552-3.066a45.365,45.365,0,0,1,3.892-5.885,23.607,23.607,0,0,1,4.688-5.02,22.965,22.965,0,0,1,5.769-3.383A27.159,27.159,0,0,1,2199.74,853.892Z" transform="translate(-2171.587 -853.878)"/>
    </g>
    <g id="Group_167" data-name="Group 167" transform="translate(26.69 26.093)">
      <path id="Path_667" data-name="Path 667" class="cls-4" d="M2249.17,926.472a.478.478,0,0,1,.44.225.83.83,0,0,1,.14.44.888.888,0,0,1-.2.559.622.622,0,0,1-.5.257,1.041,1.041,0,0,1-.676-.257.733.733,0,0,1-.311-.559.624.624,0,0,1,.418-.5A1.8,1.8,0,0,1,2249.17,926.472Z" transform="translate(-2241.786 -922.735)"/>
      <path id="Path_668" data-name="Path 668" class="cls-4" d="M2233.241,938.545a2.8,2.8,0,0,1-.171.816q-.174.514-.408,1.052t-.473.966a4.289,4.289,0,0,1-.344.557.812.812,0,0,1-.58.365.769.769,0,0,1-.634-.386c-.179-.258-.353-.536-.526-.837a7.363,7.363,0,0,0-.558-.839.865.865,0,0,0-.687-.386,1.193,1.193,0,0,0-.783.4,6.446,6.446,0,0,0-.827.978,13.006,13.006,0,0,0-.772,1.244,12.6,12.6,0,0,0-.58,1.181q-.407.988-.558.987a.239.239,0,0,1-.193-.117,1.211,1.211,0,0,1-.15-.29,2.062,2.062,0,0,1-.1-.354,1.814,1.814,0,0,1-.031-.29,2.681,2.681,0,0,1,.139-.718,7.893,7.893,0,0,1,1.009-2.093,6.788,6.788,0,0,1,.838-1.02,4.1,4.1,0,0,1,1.02-.751,2.516,2.516,0,0,1,1.181-.29,1.29,1.29,0,0,1,.9.332,3.62,3.62,0,0,1,.612.72c.165.257.3.5.419.72s.214.332.3.332c.043,0,.143-.171.3-.515s.4-.922.729-1.738q.194-.43.537-.43a.337.337,0,0,1,.3.129A.5.5,0,0,1,2233.241,938.545Z" transform="translate(-2224.869 -931.246)"/>
      <path id="Path_669" data-name="Path 669" class="cls-4" d="M2256.852,912.65a.43.43,0,0,1,.3.117.841.841,0,0,1,.2.419,4.589,4.589,0,0,1,.108.816q.033.513.032,1.331,0,1.46-.1,2.565a12.092,12.092,0,0,1-.322,1.976,6.9,6.9,0,0,1-1.557,2.951,5.872,5.872,0,0,1-.7.709q-.4.344-.784.632a5,5,0,0,1-.719.461,1.249,1.249,0,0,1-.526.173c-.086,0-.13-.03-.13-.085q.023-.173.537-.634a14.916,14.916,0,0,0,1.287-1.363,7.262,7.262,0,0,0,.924-1.3,5.887,5.887,0,0,0,.537-1.438,10.569,10.569,0,0,0,.247-1.922q.053-1.116.032-2.748-.02-.836.011-1.352a4.565,4.565,0,0,1,.108-.805.754.754,0,0,1,.2-.4A.452.452,0,0,1,2256.852,912.65Z" transform="translate(-2245.15 -912.65)"/>
      <path id="Path_670" data-name="Path 670" class="cls-4" d="M2281.492,927.823a.479.479,0,0,1,.44.225.83.83,0,0,1,.14.44.89.89,0,0,1-.2.559.623.623,0,0,1-.505.257,1.043,1.043,0,0,1-.676-.257.733.733,0,0,1-.311-.559.624.624,0,0,1,.418-.5A1.792,1.792,0,0,1,2281.492,927.823Z" transform="translate(-2265.37 -923.721)"/>
      <path id="Path_671" data-name="Path 671" class="cls-4" d="M2261.435,939.22a.389.389,0,0,1,.279-.127.256.256,0,0,1,.247.15.711.711,0,0,1,.075.321,1.142,1.142,0,0,1-.107.516,2.464,2.464,0,0,1-.279.43,16.5,16.5,0,0,1-2.265,2.146,21.485,21.485,0,0,1-2.437,1.665,13.706,13.706,0,0,1-2.254,1.072,5.367,5.367,0,0,1-1.7.376c-.416,0-.619-.054-.612-.161s.154-.225.441-.355q1.223-.579,2.318-1.181a23.261,23.261,0,0,0,2.125-1.319q1.031-.721,2.05-1.578T2261.435,939.22Z" transform="translate(-2244.947 -931.944)"/>
      <path id="Path_672" data-name="Path 672" class="cls-4" d="M2273.692,941.127a6.946,6.946,0,0,0,1.835-.3,14.935,14.935,0,0,0,2.125-.785,13.536,13.536,0,0,0,1.986-1.106,5.941,5.941,0,0,0,1.417-1.267,3.4,3.4,0,0,1-.365.023h-.258a1.236,1.236,0,0,1-1.062-.419,1.5,1.5,0,0,1-.312-.912,1.754,1.754,0,0,1,.14-.666,2.669,2.669,0,0,1,.365-.634,1.95,1.95,0,0,1,.526-.471,1.225,1.225,0,0,1,.644-.182,1.387,1.387,0,0,1,.665.171,1.664,1.664,0,0,1,.548.472,2.623,2.623,0,0,1,.364.686,2.318,2.318,0,0,1,.14.795,2.634,2.634,0,0,1-.418,1.375,6.115,6.115,0,0,1-1.094,1.309,10.433,10.433,0,0,1-1.536,1.16,13.7,13.7,0,0,1-1.738.922,11.962,11.962,0,0,1-1.729.611,5.841,5.841,0,0,1-1.47.225,2.056,2.056,0,0,1-1.094-.3.977.977,0,0,1-.537-.708c0-.058.015-.085.043-.085a1.351,1.351,0,0,1,.247.042A2.767,2.767,0,0,0,2273.692,941.127Zm6.891-4.595a3.518,3.518,0,0,0,.355-.021c.135-.014.3-.037.5-.065a1.128,1.128,0,0,0-.343-.72.8.8,0,0,0-.493-.246.664.664,0,0,0-.483.236.711.711,0,0,0-.225.494.271.271,0,0,0,.16.225A1.067,1.067,0,0,0,2280.583,936.532Z" transform="translate(-2259.866 -928.525)"/>
      <path id="Path_673" data-name="Path 673" class="cls-4" d="M2304.074,939.22a.39.39,0,0,1,.279-.127.255.255,0,0,1,.247.15.708.708,0,0,1,.075.321,1.145,1.145,0,0,1-.107.516,2.483,2.483,0,0,1-.279.43,16.469,16.469,0,0,1-2.265,2.146,21.526,21.526,0,0,1-2.437,1.665,13.717,13.717,0,0,1-2.254,1.072,5.368,5.368,0,0,1-1.7.376c-.416,0-.619-.054-.613-.161s.154-.225.44-.355q1.224-.579,2.318-1.181a23.235,23.235,0,0,0,2.125-1.319q1.031-.721,2.05-1.578T2304.074,939.22Z" transform="translate(-2276.058 -931.944)"/>
    </g>
  </g>
</svg>
