<?xml version="1.0" encoding="UTF-8"?>
<svg id="Layer_2" data-name="Layer 2" xmlns="http://www.w3.org/2000/svg" viewBox="0 0 68.22 68.22">
  <defs>
    <style>
      .cls-1 {
        fill: #cc1f48;
      }
    </style>
  </defs>
  <g id="Layer_1-2" data-name="Layer 1">
    <g>
      <path class="cls-1" d="m34.11,0C15.3,0,0,15.3,0,34.11s15.3,34.11,34.11,34.11,34.11-15.3,34.11-34.11S52.92,0,34.11,0Zm0,67.22C15.85,67.22,1,52.36,1,34.11S15.85,1,34.11,1s33.11,14.85,33.11,33.11-14.85,33.11-33.11,33.11Z"/>
      <polygon class="cls-1" points="50.09 17.42 34.11 33.4 18.13 17.42 17.42 18.13 33.4 34.11 17.42 50.09 18.13 50.8 34.11 34.82 50.09 50.8 50.8 50.09 34.82 34.11 50.8 18.13 50.09 17.42"/>
    </g>
  </g>
</svg>